<svg xmlns="http://www.w3.org/2000/svg" width="550" height="100" viewBox="0 0 145.521 26.458"><g fill="#fff"><path d="M22.981 5.619l-3.713 4.123c-8.057-8.49-15.5 3.583-10.205 10.017 3.973 3.657 9.27 2.051 9.995-2.513l-5.838-.133v-4.536l11.529.19c.687 8.12-2.507 13.777-10.206 14.551-3.748.152-10.954-1.13-13.107-9.484C.853 14.014.693 9.43 5.24 4.684c6.126-5.166 12.793-3.892 17.742.935zm25.344 5.682l5.008-.047.095 2.504c2.187-2.4 4.165-4.116 8.173-1.937l-2.173 4.394c-7.202-3.088-6.037 3.124-5.953 10.536h-5.244zm56.568-5.711l5.345-.067v5.813h3.274l.067 4.01h-3.475l.134 5.812c.317 1.71 1.338 1.59 2.54 1.003l1.402 4.21c-4.452.967-8.487 1.484-9.087-3.676l-.067-7.283h-2.271v-4.143h2.205zm-20.914 5.613h5.345v1.67c4.041-3.86 11.76-2.324 11.226 5.145v8.753h-5.346l.164-7.682c-.049-6.468-6.203-4.577-6.054-.403l-.057 7.951-5.278.067zm34.999-9.419c-1.626-.02-3.32 1.239-3.26 3.138.29 3.718 5.443 4.191 6.146.334-.073-2.443-1.452-3.455-2.886-3.472zm-2.927 9.485v15.502l5.346-.067V11.269z" fill-opacity=".941"/><g style="line-height:1.25;-inkscape-font-specification:Ravie"><path d="M45.357 26.684s-2.45-.1-5.499.002c.055-1.069-.046-.464 0-1.67-1.566 1.114-3.365 1.923-5.252 2.15-3.426.222-5.733-2.29-6.783-4.634-.918-2.05-.79-3.94-.75-4.18.288-1.721.86-3.752 2.2-5.248 1.073-1.198 2.686-2.017 4.683-2.33 2.387 0 4.493.59 5.902 2.282l.134-1.871c5.035.03 3.214.105 5.211.066-.059 13.698-.172.001 0 15.435zM39.37 18.52c-.158-1.895-2.093-3.593-3.673-3.474-1.839-.007-3.727 1.531-3.621 4.343.26 1.776 2.12 3.247 4.068 2.934 1.643-.122 3.479-2.127 3.226-3.803z" style="-inkscape-font-specification:Ravie" aria-label="a" font-weight="400" font-size="28.874" font-family="Ravie" letter-spacing="0" word-spacing="0"/></g><g style="line-height:1.25;-inkscape-font-specification:Ravie"><path d="M80.684 26.872s-2.45-.1-5.5.002c.056-1.07-.045-.464 0-1.67-1.565 1.113-3.365 1.922-5.252 2.15-3.425.222-5.732-2.29-6.783-4.635-.918-2.049-.79-3.94-.75-4.18.288-1.721.86-3.752 2.201-5.248 1.073-1.197 2.685-2.017 4.682-2.33 2.387 0 4.494.59 5.902 2.282l.134-1.871c5.035.03 3.214.106 5.212.067-.06 13.697-.172 0 0 15.435zm-5.988-8.166c-.158-1.895-2.093-3.592-3.673-3.474-1.838-.007-3.727 1.532-3.62 4.343.26 1.776 2.119 3.248 4.067 2.935 1.643-.123 3.48-2.128 3.226-3.804z" style="-inkscape-font-specification:Ravie" aria-label="a" font-weight="400" font-size="28.874" font-family="Ravie" letter-spacing="0" word-spacing="0"/></g><g style="line-height:1.25;-inkscape-font-specification:Ravie"><path d="M142.491 26.837s-2.45-.1-5.5.002c.056-1.07-.045-.464 0-1.67-1.565 1.113-3.364 1.922-5.252 2.15-3.425.222-5.732-2.29-6.783-4.634-.918-2.05-.79-3.94-.75-4.181.288-1.72.86-3.751 2.201-5.248 1.073-1.197 2.686-2.016 4.682-2.33 2.387 0 4.494.59 5.903 2.282l.133-1.87c5.036.03 3.214.105 5.212.066-.06 13.697-.172 0 0 15.435zm-5.988-8.165c-.158-1.896-2.093-3.593-3.672-3.475-1.839-.007-3.728 1.532-3.622 4.343.261 1.776 2.12 3.248 4.068 2.935 1.643-.123 3.48-2.128 3.226-3.803z" style="-inkscape-font-specification:Ravie" aria-label="a" font-weight="400" font-size="28.874" font-family="Ravie" letter-spacing="0" word-spacing="0"/></g></g></svg>